<svg width="31" height="31" viewBox="0 0 31 31" fill="none" xmlns="http://www.w3.org/2000/svg">
<path d="M21.7441 0.627136H9.25586C8.05214 0.627136 7.07202 1.60726 7.07202 2.81097V28.1886C7.07202 29.3928 8.05214 30.3729 9.25586 30.3729H21.7436C22.9478 30.3729 23.928 29.3928 23.928 28.1891V2.81097C23.928 1.60726 22.9478 0.627136 21.7441 0.627136ZM8.06355 4.59324H22.9364V23.4322H8.06355V4.59324ZM9.25586 1.61866H21.7436C22.4015 1.61866 22.9364 2.15359 22.9364 2.81097V3.60171H8.06355V2.81097C8.06355 2.15359 8.59848 1.61866 9.25586 1.61866ZM21.7441 29.3814H9.25586C8.59848 29.3814 8.06355 28.8464 8.06355 28.1891V24.4237H22.9364V28.1891C22.9364 28.8464 22.4015 29.3814 21.7441 29.3814Z" fill="#DC7000"/>
<path d="M15.5001 24.9195C14.4065 24.9195 13.5171 25.8089 13.5171 26.9025C13.5171 27.9962 14.4065 28.8856 15.5001 28.8856C16.5938 28.8856 17.4832 27.9962 17.4832 26.9025C17.4832 25.8089 16.5938 24.9195 15.5001 24.9195ZM15.5001 27.8941C14.9533 27.8941 14.5086 27.4494 14.5086 26.9025C14.5086 26.3557 14.9533 25.911 15.5001 25.911C16.047 25.911 16.4917 26.3557 16.4917 26.9025C16.4917 27.4494 16.047 27.8941 15.5001 27.8941Z" fill="#DC7000"/>
<path d="M13.517 3.10597H15.5001C15.7742 3.10597 15.9958 2.88436 15.9958 2.6102C15.9958 2.33605 15.7742 2.11444 15.5001 2.11444H13.517C13.2428 2.11444 13.0212 2.33605 13.0212 2.6102C13.0212 2.88436 13.2428 3.10597 13.517 3.10597Z" fill="#DC7000"/>
<path d="M16.9875 3.10597H17.4832C17.7574 3.10597 17.979 2.88436 17.979 2.6102C17.979 2.33605 17.7574 2.11444 17.4832 2.11444H16.9875C16.7133 2.11444 16.4917 2.33605 16.4917 2.6102C16.4917 2.88436 16.7133 3.10597 16.9875 3.10597Z" fill="#DC7000"/>
<path d="M28.6933 2.89227C28.4995 2.69843 28.1861 2.69843 27.9923 2.89227C27.7985 3.08611 27.7985 3.39943 27.9923 3.59328C29.8445 5.44545 29.8445 8.45919 27.9923 10.3119C27.7985 10.5057 27.7985 10.819 27.9923 11.0129C28.089 11.1095 28.2159 11.1581 28.3428 11.1581C28.4697 11.1581 28.5966 11.1095 28.6933 11.0129C30.9322 8.7745 30.9322 5.13113 28.6933 2.89227Z" fill="#DC7000"/>
<path d="M26.6057 4.02063C26.4118 3.82678 26.0985 3.82678 25.9047 4.02063C25.7108 4.21447 25.7108 4.52779 25.9047 4.72164C26.5179 5.33489 26.8555 6.15191 26.8555 7.02148C26.8555 7.89105 26.5179 8.70757 25.9047 9.32083C25.7108 9.51467 25.7108 9.82799 25.9047 10.0218C26.0013 10.1185 26.1282 10.1671 26.2552 10.1671C26.3821 10.1671 26.509 10.1185 26.6057 10.0218C27.4063 9.22167 27.8471 8.15578 27.8471 7.02148C27.8471 5.88717 27.4068 4.82079 26.6057 4.02063Z" fill="#DC7000"/>
<path d="M3.00784 3.59328C3.20169 3.39943 3.20169 3.08611 3.00784 2.89227C2.814 2.69843 2.50068 2.69843 2.30683 2.89227C0.0679694 5.13113 0.0679694 8.774 2.30683 11.0129C2.40351 11.1095 2.53042 11.1581 2.65734 11.1581C2.78425 11.1581 2.91117 11.1095 3.00784 11.0129C3.20169 10.819 3.20169 10.5057 3.00784 10.3119C1.15518 8.45969 1.15518 5.44594 3.00784 3.59328Z" fill="#DC7000"/>
<path d="M5.09547 3.88379C4.90163 3.68994 4.58831 3.68994 4.39447 3.88379C3.59381 4.68395 3.15308 5.74984 3.15308 6.88414C3.15308 8.01845 3.59381 9.08434 4.39447 9.88499C4.49114 9.98167 4.61806 10.0303 4.74497 10.0303C4.87189 10.0303 4.9988 9.98167 5.09547 9.88499C5.28932 9.69115 5.28932 9.37783 5.09547 9.18399C4.48222 8.57073 4.1446 7.75371 4.1446 6.88414C4.1446 6.01457 4.48172 5.19805 5.09547 4.58479C5.28882 4.39145 5.28882 4.07763 5.09547 3.88379Z" fill="#DC7000"/>
</svg>
